<?xml version="1.0" encoding="utf-8"?>
<!DOCTYPE svg PUBLIC "-//W3C//DTD SVG 1.1//EN" "http://www.w3.org/Graphics/SVG/1.1/DTD/svg11.dtd">
<svg version="1.1" id="Layer_1" xmlns="http://www.w3.org/2000/svg" xmlns:xlink="http://www.w3.org/1999/xlink" x="0px" y="0px"
	 viewBox="0 0 1518.8101 1246.8441" enable-background="new 0 0 1518.8101 1246.8441" xml:space="preserve">
<g>
	<path d="M720.4175,1247.9304c-154.8054,0-309.6106,0.0001-464.416-0.0002c-8.1593,0-8.1066-0.0129-9.7639-7.6993
		c-4.8432-22.4618-9.9256-44.8739-14.5278-67.3846c-2.5756-12.598-2.6127-25.4805-3.0307-38.3046
		c-0.2329-7.1444-1.1957-14.2623-1.5566-21.4059c-0.4635-9.1753,0.4036-18.2972,1.4764-27.4119
		c0.851-7.2295,1.0652-14.1758-5.7635-19.4868c-2.4032-1.8691-4.4555-2.4761-6.5737-1.2805
		c-6.7104,3.7872-11.9622,1.5139-16.2831-3.7152c-3.4167-4.1349-8.3544-5.7936-12.4961-8.7159
		c-7.0232-4.9554-9.2836-12.0645-6.2655-20.04c2.8676-7.5776,5.7511-15.187,7.9269-22.978
		c2.0688-7.4082,5.7531-13.7791,10.3845-19.7119c3.5393-4.5336,5.7098-9.7716,7.8909-14.9722
		c2.1419-5.1072,2.3748-10.7427-0.2558-15.488c-2.8241-5.0945-1.6624-9.169,0.8392-13.559
		c3.4624-6.0759,6.6032-12.3556,10.3806-18.2271c5.9088-9.1843,6.6163-18.9603,2.6421-28.6227
		c-3.2724-7.956-2.9081-15.8741-2.6553-23.9936c0.0566-1.8188,0.087-3.6766-0.2066-5.4612
		c-0.9711-5.9044-4.0916-7.1471-8.9337-3.6752c-12.0229,8.6208-11.5634,8.372-18.5389-4.5175
		c-5.4078-9.9926-7.0723-20.3087-7.9156-31.4707c-1.0314-13.6537-0.7595-27.2184-0.6621-40.832
		c0.0335-4.6869,0.3869-9.1768,2.5507-13.5801c1.7866-3.6357,1.6158-7.3206-2.7761-9.808c-6.188-3.5049-7.9337-7.652-6.5857-14.979
		c1.0226-5.5583,1.9961-11.1644,3.5954-16.5706c4.8772-16.4869,6.7383-33.7418,12.9894-49.8908
		c1.7764-4.5892,2.3806-9.6287,4.26-14.25c1.7546-4.3145-0.8816-7.4468-3.2146-10.3932c-3.4234-4.3235-6.5334-8.8354-9.4106-13.5207
		c-3.1282-5.094-4.7327-10.6324-4.4518-16.6275c0.2766-5.9018-1.3836-11.5345-2.2037-17.2843
		c-0.2583-1.8107-1.5905-2.8801-2.7288-4.0673c-11.9836-12.4991-23.9796-24.9862-35.98-37.4692
		c-5.8662-6.102-9.4648-13.679-13.4572-20.9639c-7.7627-14.1644-15.6375-28.2849-22.8304-42.7397
		c-9.7584-19.6104-14.7614-40.5782-15.927-62.4442c-0.6829-12.8095,3.0858-24.7487,7.7824-36.3706
		c7.3635-18.2213,14.6807-36.5564,24.3482-53.6569c19.9877-35.3558,43.4091-68.3188,72.379-97.0005
		c23.8801-23.6425,52.034-39.4613,85.2785-46.1399c25.2-5.0624,49.5453-3.3596,73.5265,5.9699
		c29.3818,11.4306,57.7841,24.8834,85.4979,39.8757c5.9843,3.2373,12.3946,5.695,18.6456,8.4275
		c2.4258,1.0604,4.702,0.8458,7.0609-0.726c18.1317-12.0814,35.488-10.2161,51.1218,5.2416
		c5.2493,5.1902,9.8962,10.8387,13.5523,17.228c2.0412,3.5671,4.3421,4.136,8.1499,2.6544
		c22.5016-8.7553,45.3205-16.6388,68.2371-24.2335c14.087-4.6686,28.6227-7.4411,43.1237-10.5003
		c19.2461-4.0603,37.1753-12.573,56.0761-17.9381c6.5682-1.8644,12.9731-4.3045,19.8851-4.5814
		c1.8181-0.0728,3.7228-0.1932,5.455,0.2395c3.9418,0.9847,8.7593,1.1473,10.2706,5.8417
		c1.5511,4.8181-0.5291,9.1976-3.5146,12.9647c-3.9928,5.0378-9.3734,8.4485-14.6955,11.896
		c-11.308,7.325-23.3775,13.4142-33.9473,21.9709c-4.8455,3.9226-11.996,4.1333-16.8568,8.4305
		c-11.6879,10.3328-27.1987,13.3832-40.1581,21.2667c-6.6937,4.0719-13.64,7.638-20.652,11.1238
		c-3.8443,1.9111-7.4203,4.4293-10.1108,7.9963c-1.1737,1.5562-2.3666,3.2449-4.5545,3.6822
		c-8.1305,1.625-14.1539,7.2225-20.8184,11.4729c-4.6008,2.9343-8.7884,6.5604-13.5358,9.3671
		c-6.4937,3.8391-8.6976,11.4505,0.2646,15.8693c13.438,6.6255,26.5181,14.0042,40.6472,19.1525
		c6.1542,2.2424,11.9031,5.1129,16.9015,9.4515c6.1888,5.3719,7.9224,10.8976,5.2265,18.6649
		c-2.4363,7.0191-6.3421,13.1355-11.6544,18.4124c-7.8012,7.7492-7.0646,16.8892,2.265,22.9862
		c8.696,5.683,13.27,12.8602,11.0917,23.4529c-0.3401,1.6541,0.7703,2.8399,1.2463,4.2173
		c2.3705,6.8595,0.5272,11.2006-6.2379,14.0609c-1.9832,0.8385-4.1068,1.3672-6.1945,1.9323
		c-5.8971,1.5959-9.4175,6.0752-9.1081,12.1972c0.235,4.6523,0.6377,9.3242,1.4003,13.9152
		c1.0797,6.4992,5.7745,10.3116,11.0817,13.3962c5.6481,3.2827,11.9147,5.1255,17.9991,7.392
		c5.9382,2.212,10.9296,5.4528,13.4175,11.7853c1.5773,4.0147,2.4022,7.9199,1.296,12.1585
		c-0.6304,2.4156-0.9998,4.8991-1.6251,7.3162c-2.4951,9.6418-1.7786,18.7181,3.8519,27.3005
		c2.4487,3.7323,4.3024,7.9075,6.0396,12.0439c4.5195,10.7613,1.4449,23.2397-7.3016,30.7996
		c-6.426,5.5543-13.0807,10.8821-19.1371,16.8173c-9.9079,9.7097-21.4374,16.419-34.8369,19.6218
		c-16.34,3.9055-26.1136,14.636-31.8436,29.6458c-5.9337,15.5433-12.1373,31.0049-14.798,47.6039
		c-1.5837,9.8806-0.1433,11.5869,9.5403,9.3244c10.0881-2.3568,19.69-6.2951,29.2575-10.1011
		c15.1516-6.0273,30.1631-5.3406,45.5754-1.5152c29.806,7.3979,52.1089,24.5459,67.2618,51.0662
		c5.8498,10.238,12.6659,19.4799,22.1698,26.7017c3.3628,2.5553,7.0278,4.4157,10.5969,6.5156
		c6.2936,3.7029,10.5272,9.6645,15.9615,14.2905c5.4298,4.6221,10.721,9.4595,17.3181,12.5382
		c3.39,1.5819,5.5078,0.5837,7.5919-2.2494c3.5626-4.8428,5.8251-9.874,5.4317-16.1403
		c-0.9301-14.811,1.0205-29.2598,6.5654-43.1151c1.3491-3.3709,0.4865-6.4535-0.6837-9.6677
		c-2.0999-5.7675-1.658-6.4703,4.1442-7.9965c8.8267-2.3218,16.9536-6.2994,21.4284-14.4167
		c12.3164-22.3414,33.7584-31.7279,55.7656-40.4079c3.4954-1.3786,5.4834-2.8826,5.8432-6.8981
		c0.7009-7.8206,5.0176-14.0861,10.163-19.6356c23.3818-25.2177,39.4641-54.6929,51.382-86.7098
		c2.8801-7.7371,2.908-14.8228-1.4982-21.9461c-5.1281-8.2904-8.2981-17.3445-10.3789-26.8823
		c-1.4879-6.82-3.6169-13.5114-5.6813-20.1919c-3.4791-11.2589-4.8998-22.7149-4.4485-34.5032
		c0.3745-9.7834,0.899-19.5726-3.655-28.9164c-1.6769-3.4406-1.5292-7.7916-2.1053-11.7431
		c-1.2289-8.4308-5.3549-15.2844-11.2621-21.235c-1.9929-2.0075-3.7827-4.2147-5.7197-6.2796
		c-5.2257-5.5707-7.1198-11.7267-4.2872-19.2264c2.0453-5.4155,0.2635-10.1275-4.11-13.8544
		c-1.1409-0.9723-2.192-2.1126-3.4724-2.8482c-7.7543-4.4546-11.9442-10.8444-11.2829-20.0283
		c0.1294-1.7966-0.9116-3.2192-2.0649-4.4144c-6.73-6.9738-12.5492-14.6858-18.2495-22.486
		c-2.7083-3.7059-6.1216-5.1554-10.7195-4.9964c-7.7912,0.2695-10.0238-1.3486-12.2462-8.8283
		c-1.5613-5.2549-2.618-10.6647-3.7838-16.0306c-1.1217-5.163-3.2593-9.4104-8.7617-11.1198
		c-1.2573-0.3906-2.4206-1.1079-3.5968-1.732c-11.0153-5.8448-13.3517-14.8298-6.433-25.313
		c4.4217-6.6998,8.9717-13.2599,9.1833-21.7579c0.0801-3.2136-0.0612-6.23-1.5256-9.2113
		c-12.382-25.2079-13.8403-52.1529-12.4435-79.5235c0.9835-19.2726,4.2012-37.993,12.7479-55.5949
		c17.3298-35.6909,45.4081-60.032,80.1526-77.8912c14.4354-7.4199,30.3121-11.1386,44.5662-18.8042
		c3.812-2.05,6.7116-6.1757,11.8843-5.0527c4.0554,0.8804,8.0097,0.1037,11.7905-1.2362
		c17.3682-6.155,35.6637-7.2674,53.5489-6.5431c17.8447,0.7227,35.6344,5.1666,52.3461,12.0564
		c8.0402,3.3147,14.3721,9.7807,19.939,16.3919c6.1519,7.3059,12.9432,13.9936,20.0012,20.2297
		c20.5065,18.1187,33.2477,40.8312,41.7775,66.3751c6.8363,20.4725,11.4952,41.356,13.0466,62.925
		c0.3448,4.7967,1.6324,9.5179,2.2245,14.3063c0.8981,7.2655-0.4255,13.8098-6.0421,19.2c-2.7339,2.6238-4.8544,5.9113-7.1091,9.003
		c-2.1941,3.0086-4.6663,5.6371-8.0607,7.2946c-4.2175,2.0594-6.6569,5.5038-7.3579,10.0693
		c-2.072,13.4944-7.0858,25.9599-13.0096,38.1384c-2.3899,4.9133-1.2185,11.4126,3.334,14.2183
		c7.0397,4.3385,13.6729,9.6851,22.1344,11.2573c25.4016,4.7196,43.4382,19.0232,55.1678,41.8487
		c3.3463,6.5122,7.5255,12.5814,12.5916,17.9609c3.8407,4.0783,6.2609,4.2384,10.6986,0.6703
		c1.2972-1.0432,2.4847-2.2932,3.9249-3.0765c6.2278-3.3872,11.9336-6.543,19.9678-3.3111
		c7.5574,3.0401,14.9836,6.1447,22.1506,9.9989c7.4993,4.033,15.6938,6.4074,23.5891,9.5027
		c10.9028,4.2745,20.771,10.5268,30.2332,17.349c11.7501,8.4717,23.2692,17.285,34.1245,26.8703
		c6.4603,5.7044,13.5223,11.4261,17.8665,18.6182c3.8114,6.31,7.8606,9.7466,14.7911,10.6899
		c1.3414,0.1826,2.6892,1.3543,3.7544,2.3648c7.6619,7.2686,17.1093,12.7856,21.9021,22.9084
		c0.8778,1.854,3.3708,3.5421,5.4502,4.1274c10.3733,2.9201,17.4922,10.3968,23.7836,18.1277
		c6.4163,7.8843,12.5917,16.0272,19.8683,23.0491c9.175,8.8536,8.3982,19.0882,4.3757,29.0059
		c-3.1106,7.67-6.3618,15.3483-9.5398,23.0236c-1.7283,4.174-4.3645,7.4109-8.1014,9.8601
		c-6.2543,4.0989-10.005,9.9204-12.4004,16.9705c-8.9084,26.2179-22.5286,49.3055-42.665,68.8681
		c-14.6456,14.2284-33.0798,18.2986-51.3597,23.3245c-6.9137,1.9009-7.6034,1.6455-5.2584,8.4124
		c8.892,25.6595,17.0225,51.5415,23.5609,77.9156c2.413,9.7329,6.8077,18.7819,10.4829,28.0667
		c7.2104,18.217,9.0249,37.5388,11.2379,56.6697c1.9078,16.4927,2.418,33.1241,1.6857,49.8328
		c-0.6101,13.9236-3.9982,27.0786-8.5829,39.8795c-9.6882,27.0491-26.6278,49.5418-49.288,66.6343
		c-14.749,11.1252-30.6094,21.1794-47.4849,29.3926c-15.6674,7.6252-31.3761,14.6713-48.7614,17.2288
		c-2.6838,0.3947-4.4473,2.2482-6.0276,4.1737c-5.3884,6.566-10.6968,13.198-15.9977,19.8353
		c-2.0424,2.5573-2.7516,5.4851-2.9495,8.7992c-0.514,8.6094,0.6146,17.2522-1.5209,25.853
		c-2.8154,11.3398-4.8527,13.5277-16.7898,14.5029c-6.5018,0.5311-12.8348,1.6122-18.922,4.1165
		c-2.5288,1.0405-4.1083,2.0647-4.2053,5.2435c-0.142,4.645-1.0875,9.2555-2.4594,13.7375
		c-1.5177,4.9585-0.0516,9.1144,3.3132,12.8514c7.5623,8.3982,15.2673,16.6813,22.4939,25.3612
		c2.8242,3.3922,4.7393,7.6462,6.026,11.9664c0.8433,2.8307,0.1166,4.9827-3.5636,4.7574
		c-1.8254-0.1117-3.6646,0.0048-5.4976,0.0049C1029.36,1247.9304,874.8887,1247.9304,720.4175,1247.9304z M863.1755,863.3182
		c-0.4014-0.0005-0.8029-0.001-1.2043-0.0015c0-6.6603,0.0445-13.321-0.0204-19.9807c-0.0287-2.9586,0.366-6.2559-3.7449-7.1174
		c-3.8612-0.8092-7.1136-0.4442-9.4786,3.4272c-1.9828,3.2458-4.2612,6.4431-6.9743,9.0799
		c-4.0485,3.9348-6.5596,8.6098-8.9794,13.6172c-5.0674,10.4865-10.5659,20.7751-16.1962,30.9745
		c-2.6125,4.7329-8.6248,6.1888-13.002,3.7993c-3.421-1.8676-4.0481-5.4699-1.7115-11.0305c1.368-3.256,2.3513-6.468,2.2786-10.1127
		c-0.0542-2.7123-2.5502-2.7777-3.677-4.2501c-0.6027-0.7873-2.1113,1.0949-2.9041,1.9807
		c-3.8869,4.3428-7.6001,8.8403-11.4397,13.2263c-4.0303,4.6038-3.8768,7.3876,1.1517,11.0069
		c5.4294,3.9081,10.6334,7.9655,14.6438,13.442c2.2307,3.046,5.455,4.85,9.232,5.5065c8.4507,1.4689,16.5206,3.8605,23.5272,9.1157
		c2.5161,1.8872,5.6138,1.9424,8.6364,1.9182c6.689-0.0538,13.4128,0.147,19.7936,2.1991
		c8.8257,2.8386,18.1907,5.0126,24.072,13.1913c4.9438,6.875,10.7988,13.1465,14.213,21.0607
		c1.2897,2.9896,3.5702,4.3965,6.8107,5.1204c7.9997,1.7867,15.6439,4.589,22.5306,9.2292
		c1.9133,1.2891,4.0294,2.6432,6.2285,3.0784c8.644,1.7109,16.0378,5.1938,23.0461,10.9204
		c8.1567,6.6648,15.6202,4.1718,19.8198-5.3397c9.0201-20.4293,17.3115-41.1483,22.4731-62.9532
		c1.8005-7.606,4.1053-15.4093,2.5411-23.1785c-1.5737-7.8168-3.429-15.5931-4.8004-23.4601
		c-0.3491-2.003-1.3725-3.2845-3.0336-4.2943c-5.1226-3.1139-10.076-6.6295-15.8347-8.4418
		c-10.169-3.2006-18.84-8.822-27.4293-15.0084c-8.4999-6.1223-13.4014-14.0719-16.1261-23.8353
		c-1.8458-6.6144-2.5912-13.4223-3.1942-20.1887c-0.3517-3.9454-2.6688-5.2346-5.5121-5.843
		c-2.6516-0.5673-3.6793,2.1407-4.6654,4.0168c-4.7726,9.0803-12.0825,15.3376-21.2217,19.6965
		c-2.5515,1.2169-5.0593,2.5659-7.4476,4.0751c-3.7368,2.3615-7.1563,5.3574-8.0978,9.7663
		c-1.5598,7.304-3.7563,14.4459-4.6445,21.9429c-1.1309,9.5459-1.8625,19.2155-5.4596,28.3587
		c-1.8094,4.5992-4.9326,5.834-9.3918,5.3094c-4.3752-0.5147-4.6382-3.9887-4.7311-7.0698
		C863.0206,878.6271,863.1755,870.9703,863.1755,863.3182z M314.1726,751.7913c-0.1453-2.8259-0.329-5.6506-0.4275-8.4781
		c-0.1796-5.1543-2.5206-8.6171-7.3328-10.8033c-6.3484-2.8841-13.2083-3.0344-19.8456-4.3535
		c-3.3244-0.6605-4.9987,0.6603-4.6176,4.3442c1.2691,12.2678,6.0867,23.0511,13.7556,32.5458
		c3.1384,3.8856,7.4376,3.7227,11.8723,2.1276C315.3466,764.3794,314.3771,757.9449,314.1726,751.7913z"/>
</g>
</svg>
